<svg width="321" height="207" viewBox="0 0 321 207" fill="none" xmlns="http://www.w3.org/2000/svg">
<mask id="mask0_76_2731" style="mask-type:alpha" maskUnits="userSpaceOnUse" x="0" y="0" width="321" height="207">
<rect width="320.425" height="206.172" rx="26" fill="url(#paint0_linear_76_2731)"/>
</mask>
<g mask="url(#mask0_76_2731)">
<path d="M23.852 96.084C20.912 96.084 18.728 93.97 18.728 91.1C18.728 88.23 20.912 86.116 23.866 86.116C25.294 86.116 26.582 86.592 27.45 87.544L26.792 88.202C25.994 87.39 25.014 87.04 23.894 87.04C21.528 87.04 19.75 88.776 19.75 91.1C19.75 93.424 21.528 95.16 23.894 95.16C25.014 95.16 25.994 94.81 26.792 93.984L27.45 94.642C26.582 95.594 25.294 96.084 23.852 96.084ZM31.9151 88.58C33.8191 88.58 34.8971 89.532 34.8971 91.436V96H33.9451V94.852C33.4971 95.608 32.6291 96.07 31.4111 96.07C29.7451 96.07 28.7231 95.202 28.7231 93.928C28.7231 92.794 29.4511 91.842 31.5651 91.842H33.9031V91.394C33.9031 90.134 33.1891 89.448 31.8171 89.448C30.8651 89.448 29.9691 89.784 29.3671 90.316L28.9191 89.574C29.6611 88.944 30.7531 88.58 31.9151 88.58ZM31.5651 95.286C32.6851 95.286 33.5111 94.754 33.9031 93.788V92.584H31.5931C30.1651 92.584 29.7031 93.144 29.7031 93.9C29.7031 94.754 30.3891 95.286 31.5651 95.286ZM38.5489 90.078C39.0109 89.098 39.9489 88.58 41.3069 88.58V89.546C41.2229 89.546 41.1389 89.532 41.0689 89.532C39.5289 89.532 38.5909 90.512 38.5909 92.248V96H37.5969V88.636H38.5489V90.078ZM48.7643 85.612H49.7583V96H48.8063V94.544C48.2043 95.538 47.1823 96.07 45.9643 96.07C43.8643 96.07 42.2963 94.544 42.2963 92.318C42.2963 90.092 43.8643 88.58 45.9643 88.58C47.1403 88.58 48.1483 89.084 48.7643 90.036V85.612ZM46.0483 95.188C47.6023 95.188 48.7783 94.04 48.7783 92.318C48.7783 90.596 47.6023 89.448 46.0483 89.448C44.4803 89.448 43.3043 90.596 43.3043 92.318C43.3043 94.04 44.4803 95.188 46.0483 95.188ZM59.9427 88.58C61.7347 88.58 62.9667 89.616 62.9667 91.73V96H61.9727V91.828C61.9727 90.274 61.1607 89.476 59.7607 89.476C58.1787 89.476 57.1847 90.456 57.1847 92.136V96H56.1907V85.612H57.1847V89.924C57.7307 89.07 58.6967 88.58 59.9427 88.58ZM68.7026 96.07C66.5466 96.07 64.9506 94.502 64.9506 92.318C64.9506 90.134 66.5466 88.58 68.7026 88.58C70.8586 88.58 72.4406 90.134 72.4406 92.318C72.4406 94.502 70.8586 96.07 68.7026 96.07ZM68.7026 95.188C70.2706 95.188 71.4326 94.04 71.4326 92.318C71.4326 90.596 70.2706 89.448 68.7026 89.448C67.1346 89.448 65.9586 90.596 65.9586 92.318C65.9586 94.04 67.1346 95.188 68.7026 95.188ZM74.47 96V85.612H75.464V96H74.47ZM83.9558 85.612H84.9498V96H83.9978V94.544C83.3958 95.538 82.3738 96.07 81.1558 96.07C79.0558 96.07 77.4878 94.544 77.4878 92.318C77.4878 90.092 79.0558 88.58 81.1558 88.58C82.3318 88.58 83.3398 89.084 83.9558 90.036V85.612ZM81.2398 95.188C82.7938 95.188 83.9698 94.04 83.9698 92.318C83.9698 90.596 82.7938 89.448 81.2398 89.448C79.6718 89.448 78.4958 90.596 78.4958 92.318C78.4958 94.04 79.6718 95.188 81.2398 95.188ZM94.144 92.318C94.144 92.402 94.13 92.514 94.13 92.626H87.97C88.082 94.166 89.258 95.188 90.868 95.188C91.764 95.188 92.562 94.866 93.122 94.222L93.682 94.866C93.024 95.65 92.002 96.07 90.84 96.07C88.544 96.07 86.976 94.502 86.976 92.318C86.976 90.134 88.502 88.58 90.574 88.58C92.646 88.58 94.144 90.106 94.144 92.318ZM90.574 89.434C89.146 89.434 88.096 90.442 87.97 91.884H93.192C93.066 90.442 92.016 89.434 90.574 89.434ZM97.1193 90.078C97.5813 89.098 98.5193 88.58 99.8773 88.58V89.546C99.7933 89.546 99.7093 89.532 99.6393 89.532C98.0993 89.532 97.1613 90.512 97.1613 92.248V96H96.1673V88.636H97.1193V90.078Z" fill="white"/>
<path d="M213.348 179.814C213.348 208.67 189.955 232.063 161.099 232.063C132.242 232.063 108.85 208.67 108.85 179.814C108.85 164.6 115.352 150.904 125.73 141.355C135.035 132.793 147.456 127.565 161.099 127.565C189.955 127.565 213.348 150.957 213.348 179.814Z" fill="white" fill-opacity="0.12"/>
<path d="M213.348 179.814C213.348 208.67 189.955 232.063 161.099 232.063H311.893C283.037 232.063 259.644 208.67 259.644 179.814C259.644 176.128 260.026 172.531 260.752 169.06C258.291 169.416 255.775 169.6 253.216 169.6C227.855 169.6 206.714 151.531 201.965 127.565H167.882H161.099C189.955 127.565 213.348 150.957 213.348 179.814Z" fill="white" fill-opacity="0.12"/>
<path d="M201.965 127.565C201.31 124.261 200.967 120.846 200.967 117.351C200.967 112.76 201.559 108.308 202.671 104.066C198.305 111.899 185.234 127.565 167.882 127.565H201.965Z" fill="white" fill-opacity="0.12"/>
<path fill-rule="evenodd" clip-rule="evenodd" d="M311.893 232.063C340.75 232.063 364.142 208.67 364.142 179.814C364.142 150.957 340.75 127.565 311.893 127.565C309.334 127.565 306.818 127.748 304.357 128.104C299.904 149.392 282.493 165.92 260.752 169.06C260.026 172.531 259.644 176.128 259.644 179.814C259.644 208.67 283.037 232.063 311.893 232.063Z" fill="white" fill-opacity="0.12"/>
<path d="M304.357 128.104C299.904 149.392 282.493 165.92 260.752 169.06C265.206 147.772 282.616 131.245 304.357 128.104Z" fill="white" fill-opacity="0.12"/>
<path d="M305.465 117.351C305.465 88.4943 282.072 65.1016 253.216 65.1016C228.95 65.1016 208.548 81.6434 202.671 104.066C201.559 108.308 200.967 112.76 200.967 117.351C200.967 120.846 201.31 124.261 201.965 127.565C206.714 151.531 227.855 169.6 253.216 169.6C255.775 169.6 258.291 169.416 260.752 169.06C265.206 147.772 282.616 131.245 304.357 128.104C305.084 124.634 305.465 121.037 305.465 117.351Z" fill="white" fill-opacity="0.12"/>
</g>
<defs>
<linearGradient id="paint0_linear_76_2731" x1="160.213" y1="0" x2="160.213" y2="206.172" gradientUnits="userSpaceOnUse">
<stop stop-color="#197BBD"/>
<stop offset="1" stop-color="#3391D0"/>
</linearGradient>
</defs>
</svg>
