<svg width="369" height="255" viewBox="0 0 369 255" fill="none" xmlns="http://www.w3.org/2000/svg">
<g filter="url(#filter0_ddd_76_2778)">
<g filter="url(#filter1_ddd_76_2778)">
<rect x="24" y="8" width="320.425" height="206.172" rx="26" fill="url(#paint0_linear_76_2778)"/>
<path d="M24 34C24 19.6406 35.6406 8 50 8H318C332.359 8 344 19.6406 344 34V71H24V34Z" fill="#2E628C"/>
<mask id="mask0_76_2778" style="mask-type:alpha" maskUnits="userSpaceOnUse" x="24" y="8" width="321" height="207">
<rect x="24" y="8" width="320.425" height="206.172" rx="26" fill="url(#paint1_linear_76_2778)"/>
</mask>
<g mask="url(#mask0_76_2778)">
<path d="M237.348 187.814C237.348 216.67 213.955 240.063 185.099 240.063C156.242 240.063 132.85 216.67 132.85 187.814C132.85 172.6 139.352 158.904 149.73 149.355C159.035 140.793 171.456 135.565 185.099 135.565C213.955 135.565 237.348 158.957 237.348 187.814Z" fill="white" fill-opacity="0.12"/>
<path d="M237.348 187.814C237.348 216.67 213.955 240.063 185.099 240.063H335.893C307.037 240.063 283.644 216.67 283.644 187.814C283.644 184.128 284.026 180.531 284.752 177.06C282.291 177.416 279.775 177.6 277.216 177.6C251.855 177.6 230.714 159.531 225.965 135.565H191.882H185.099C213.955 135.565 237.348 158.957 237.348 187.814Z" fill="white" fill-opacity="0.12"/>
<path d="M225.965 135.565C225.31 132.261 224.967 128.846 224.967 125.351C224.967 120.76 225.559 116.308 226.671 112.066C222.305 119.899 209.234 135.565 191.882 135.565H225.965Z" fill="white" fill-opacity="0.12"/>
<path fill-rule="evenodd" clip-rule="evenodd" d="M335.893 240.063C364.75 240.063 388.142 216.67 388.142 187.814C388.142 158.957 364.75 135.565 335.893 135.565C333.334 135.565 330.818 135.748 328.357 136.104C323.904 157.392 306.493 173.92 284.752 177.06C284.026 180.531 283.644 184.128 283.644 187.814C283.644 216.67 307.037 240.063 335.893 240.063Z" fill="white" fill-opacity="0.12"/>
<path d="M328.357 136.104C323.904 157.392 306.493 173.92 284.752 177.06C289.206 155.772 306.616 139.245 328.357 136.104Z" fill="white" fill-opacity="0.12"/>
<path d="M329.465 125.351C329.465 96.4943 306.072 73.1016 277.216 73.1016C252.95 73.1016 232.548 89.6434 226.671 112.066C225.559 116.308 224.967 120.76 224.967 125.351C224.967 128.846 225.31 132.261 225.965 135.565C230.714 159.531 251.855 177.6 277.216 177.6C279.775 177.6 282.291 177.416 284.752 177.06C289.206 155.772 306.616 139.245 328.357 136.104C329.083 132.634 329.465 129.037 329.465 125.351Z" fill="white" fill-opacity="0.12"/>
</g>
<path d="M49.9095 45.5518C49.128 45.5518 48.4246 45.4568 47.7993 45.267C47.1741 45.0661 46.5768 44.72 46.0073 44.2287C45.8622 44.1059 45.7505 43.9663 45.6724 43.81C45.5942 43.6537 45.5552 43.4974 45.5552 43.3411C45.5552 43.0843 45.6445 42.861 45.8231 42.6712C46.0129 42.4702 46.2474 42.3697 46.5265 42.3697C46.7386 42.3697 46.9284 42.4367 47.0959 42.5707C47.5202 42.9168 47.9389 43.1792 48.352 43.3578C48.7763 43.5365 49.2954 43.6258 49.9095 43.6258C50.3226 43.6258 50.7022 43.5644 51.0483 43.4416C51.3944 43.3076 51.6736 43.1345 51.8857 42.9224C52.0978 42.6991 52.2039 42.4479 52.2039 42.1688C52.2039 41.8338 52.1034 41.5491 51.9025 41.3146C51.7015 41.0802 51.3944 40.8848 50.9813 40.7285C50.5682 40.561 50.0435 40.4326 49.4071 40.3433C48.8042 40.254 48.2738 40.12 47.8161 39.9413C47.3583 39.7515 46.9731 39.5171 46.6605 39.2379C46.359 38.9477 46.1302 38.6127 45.9738 38.2331C45.8175 37.8423 45.7394 37.4069 45.7394 36.9268C45.7394 36.2011 45.9236 35.5814 46.292 35.0678C46.6717 34.5542 47.1797 34.1635 47.8161 33.8955C48.4525 33.6275 49.1559 33.4936 49.9263 33.4936C50.652 33.4936 51.3219 33.6052 51.936 33.8285C52.5612 34.0406 53.0692 34.3142 53.46 34.6491C53.7838 34.9059 53.9457 35.2018 53.9457 35.5367C53.9457 35.7824 53.8507 36.0057 53.6609 36.2066C53.4711 36.4076 53.2478 36.5081 52.991 36.5081C52.8236 36.5081 52.6728 36.4579 52.5389 36.3574C52.3602 36.2011 52.1202 36.0559 51.8187 35.9219C51.5173 35.7768 51.1991 35.6596 50.8641 35.5702C50.5292 35.4698 50.2165 35.4195 49.9263 35.4195C49.4462 35.4195 49.0386 35.4809 48.7037 35.6037C48.3799 35.7266 48.1343 35.894 47.9668 36.1062C47.7993 36.3183 47.7156 36.5639 47.7156 36.8431C47.7156 37.178 47.8105 37.4571 48.0003 37.6804C48.2013 37.8926 48.486 38.0656 48.8544 38.1996C49.2229 38.3224 49.6639 38.4341 50.1775 38.5345C50.8474 38.6574 51.4335 38.8025 51.936 38.97C52.4495 39.1375 52.8738 39.3552 53.2088 39.6231C53.5437 39.8799 53.7949 40.2093 53.9624 40.6112C54.1299 41.002 54.2136 41.4821 54.2136 42.0515C54.2136 42.7772 54.0126 43.4025 53.6107 43.9272C53.2088 44.452 52.6784 44.8539 52.0197 45.1331C51.3721 45.4122 50.6687 45.5518 49.9095 45.5518ZM63.3021 36.2569C63.5924 36.2569 63.8325 36.3518 64.0223 36.5416C64.2121 36.7314 64.307 36.977 64.307 37.2785V44.3627C64.307 44.653 64.2121 44.8986 64.0223 45.0996C63.8325 45.2894 63.5924 45.3843 63.3021 45.3843C63.0118 45.3843 62.7718 45.2894 62.582 45.0996C62.3922 44.8986 62.2973 44.653 62.2973 44.3627V43.5421L62.6657 43.6928C62.6657 43.8379 62.5876 44.0166 62.4313 44.2287C62.275 44.4297 62.0628 44.6306 61.7949 44.8316C61.5269 45.0326 61.2087 45.2056 60.8403 45.3508C60.483 45.4848 60.0922 45.5518 59.6679 45.5518C58.8975 45.5518 58.1997 45.3564 57.5745 44.9656C56.9493 44.5636 56.4524 44.0166 56.084 43.3243C55.7267 42.6209 55.548 41.8171 55.548 40.9127C55.548 39.9972 55.7267 39.1933 56.084 38.5011C56.4524 37.7977 56.9437 37.2506 57.5577 36.8598C58.1718 36.4579 58.8529 36.2569 59.6009 36.2569C60.081 36.2569 60.5221 36.3295 60.924 36.4746C61.3259 36.6198 61.672 36.804 61.9623 37.0273C62.2638 37.2506 62.4927 37.4795 62.649 37.7139C62.8165 37.9372 62.9002 38.127 62.9002 38.2833L62.2973 38.5011V37.2785C62.2973 36.9882 62.3922 36.7481 62.582 36.5583C62.7718 36.3574 63.0118 36.2569 63.3021 36.2569ZM59.9191 43.7095C60.4104 43.7095 60.8403 43.5867 61.2087 43.3411C61.5771 43.0955 61.8619 42.7605 62.0628 42.3362C62.275 41.912 62.381 41.4374 62.381 40.9127C62.381 40.3768 62.275 39.8967 62.0628 39.4724C61.8619 39.0481 61.5771 38.7132 61.2087 38.4676C60.8403 38.2219 60.4104 38.0991 59.9191 38.0991C59.439 38.0991 59.0148 38.2219 58.6463 38.4676C58.2779 38.7132 57.9876 39.0481 57.7755 39.4724C57.5745 39.8967 57.474 40.3768 57.474 40.9127C57.474 41.4374 57.5745 41.912 57.7755 42.3362C57.9876 42.7605 58.2779 43.0955 58.6463 43.3411C59.0148 43.5867 59.439 43.7095 59.9191 43.7095ZM73.9819 36.2569C74.2722 36.2569 74.5123 36.3518 74.7021 36.5416C74.8919 36.7314 74.9868 36.977 74.9868 37.2785V44.3627C74.9868 44.653 74.8919 44.8986 74.7021 45.0996C74.5123 45.2894 74.2722 45.3843 73.9819 45.3843C73.6917 45.3843 73.4516 45.2894 73.2618 45.0996C73.072 44.8986 72.9771 44.653 72.9771 44.3627V43.5421L73.3455 43.6928C73.3455 43.8379 73.2674 44.0166 73.1111 44.2287C72.9548 44.4297 72.7426 44.6306 72.4747 44.8316C72.2067 45.0326 71.8885 45.2056 71.5201 45.3508C71.1628 45.4848 70.772 45.5518 70.3477 45.5518C69.5773 45.5518 68.8795 45.3564 68.2543 44.9656C67.6291 44.5636 67.1322 44.0166 66.7638 43.3243C66.4065 42.6209 66.2278 41.8171 66.2278 40.9127C66.2278 39.9972 66.4065 39.1933 66.7638 38.5011C67.1322 37.7977 67.6235 37.2506 68.2375 36.8598C68.8516 36.4579 69.5327 36.2569 70.2807 36.2569C70.7608 36.2569 71.2019 36.3295 71.6038 36.4746C72.0057 36.6198 72.3519 36.804 72.6421 37.0273C72.9436 37.2506 73.1725 37.4795 73.3288 37.7139C73.4963 37.9372 73.58 38.127 73.58 38.2833L72.9771 38.5011V37.2785C72.9771 36.9882 73.072 36.7481 73.2618 36.5583C73.4516 36.3574 73.6917 36.2569 73.9819 36.2569ZM70.5989 43.7095C71.0902 43.7095 71.5201 43.5867 71.8885 43.3411C72.2569 43.0955 72.5417 42.7605 72.7426 42.3362C72.9548 41.912 73.0608 41.4374 73.0608 40.9127C73.0608 40.3768 72.9548 39.8967 72.7426 39.4724C72.5417 39.0481 72.2569 38.7132 71.8885 38.4676C71.5201 38.2219 71.0902 38.0991 70.5989 38.0991C70.1189 38.0991 69.6946 38.2219 69.3261 38.4676C68.9577 38.7132 68.6674 39.0481 68.4553 39.4724C68.2543 39.8967 68.1538 40.3768 68.1538 40.9127C68.1538 41.4374 68.2543 41.912 68.4553 42.3362C68.6674 42.7605 68.9577 43.0955 69.3261 43.3411C69.6946 43.5867 70.1189 43.7095 70.5989 43.7095ZM84.4982 32.9911C84.7885 32.9911 85.0285 33.086 85.2183 33.2758C85.4081 33.4656 85.503 33.7113 85.503 34.0127V44.3627C85.503 44.653 85.4081 44.8986 85.2183 45.0996C85.0285 45.2894 84.7885 45.3843 84.4982 45.3843C84.2079 45.3843 83.9679 45.2894 83.7781 45.0996C83.5882 44.8986 83.4933 44.653 83.4933 44.3627V43.5421L83.8618 43.6928C83.8618 43.8379 83.7836 44.0166 83.6273 44.2287C83.471 44.4297 83.2589 44.6306 82.9909 44.8316C82.723 45.0326 82.4048 45.2056 82.0363 45.3508C81.679 45.4848 81.2883 45.5518 80.864 45.5518C80.0936 45.5518 79.3958 45.3564 78.7705 44.9656C78.1453 44.5636 77.6485 44.0166 77.28 43.3243C76.9227 42.6209 76.7441 41.8171 76.7441 40.9127C76.7441 39.9972 76.9227 39.1933 77.28 38.5011C77.6485 37.7977 78.1397 37.2506 78.7538 36.8598C79.3679 36.4579 80.0489 36.2569 80.797 36.2569C81.2771 36.2569 81.7181 36.3295 82.12 36.4746C82.522 36.6198 82.8681 36.804 83.1584 37.0273C83.4598 37.2506 83.6887 37.4795 83.845 37.7139C84.0125 37.9372 84.0963 38.127 84.0963 38.2833L83.4933 38.5011V34.0127C83.4933 33.7224 83.5882 33.4824 83.7781 33.2926C83.9679 33.0916 84.2079 32.9911 84.4982 32.9911ZM81.1152 43.7095C81.6065 43.7095 82.0363 43.5867 82.4048 43.3411C82.7732 43.0955 83.0579 42.7605 83.2589 42.3362C83.471 41.912 83.5771 41.4374 83.5771 40.9127C83.5771 40.3768 83.471 39.8967 83.2589 39.4724C83.0579 39.0481 82.7732 38.7132 82.4048 38.4676C82.0363 38.2219 81.6065 38.0991 81.1152 38.0991C80.6351 38.0991 80.2108 38.2219 79.8424 38.4676C79.4739 38.7132 79.1837 39.0481 78.9715 39.4724C78.7705 39.8967 78.6701 40.3768 78.6701 40.9127C78.6701 41.4374 78.7705 41.912 78.9715 42.3362C79.1837 42.7605 79.4739 43.0955 79.8424 43.3411C80.2108 43.5867 80.6351 43.7095 81.1152 43.7095ZM92.3851 36.2569C93.189 36.2569 93.7975 36.4299 94.2106 36.7761C94.6348 37.1222 94.9251 37.5855 95.0814 38.1661C95.2377 38.7355 95.3159 39.3719 95.3159 40.0753V44.3627C95.3159 44.653 95.221 44.8986 95.0312 45.0996C94.8414 45.2894 94.6013 45.3843 94.3111 45.3843C94.0208 45.3843 93.7807 45.2894 93.5909 45.0996C93.4011 44.8986 93.3062 44.653 93.3062 44.3627V40.0753C93.3062 39.7069 93.2615 39.3775 93.1722 39.0872C93.0829 38.7858 92.921 38.5457 92.6865 38.3671C92.4521 38.1884 92.1171 38.0991 91.6817 38.0991C91.2574 38.0991 90.8946 38.1884 90.5931 38.3671C90.2917 38.5457 90.0628 38.7858 89.9065 39.0872C89.7613 39.3775 89.6887 39.7069 89.6887 40.0753V44.3627C89.6887 44.653 89.5938 44.8986 89.404 45.0996C89.2142 45.2894 88.9742 45.3843 88.6839 45.3843C88.3936 45.3843 88.1536 45.2894 87.9637 45.0996C87.7739 44.8986 87.679 44.653 87.679 44.3627V34.0127C87.679 33.7224 87.7739 33.4824 87.9637 33.2926C88.1536 33.0916 88.3936 32.9911 88.6839 32.9911C88.9742 32.9911 89.2142 33.0916 89.404 33.2926C89.5938 33.4824 89.6887 33.7224 89.6887 34.0127V38.1661L89.4375 38.1159C89.538 37.9261 89.6776 37.7251 89.8562 37.513C90.0349 37.2897 90.2526 37.0831 90.5094 36.8933C90.7662 36.7035 91.0509 36.5528 91.3635 36.4411C91.6761 36.3183 92.0166 36.2569 92.3851 36.2569ZM104.827 36.2569C105.118 36.2569 105.358 36.3518 105.548 36.5416C105.737 36.7314 105.832 36.977 105.832 37.2785V44.3627C105.832 44.653 105.737 44.8986 105.548 45.0996C105.358 45.2894 105.118 45.3843 104.827 45.3843C104.537 45.3843 104.297 45.2894 104.107 45.0996C103.917 44.8986 103.823 44.653 103.823 44.3627V43.5421L104.191 43.6928C104.191 43.8379 104.113 44.0166 103.957 44.2287C103.8 44.4297 103.588 44.6306 103.32 44.8316C103.052 45.0326 102.734 45.2056 102.366 45.3508C102.008 45.4848 101.617 45.5518 101.193 45.5518C100.423 45.5518 99.725 45.3564 99.0998 44.9656C98.4745 44.5636 97.9777 44.0166 97.6093 43.3243C97.252 42.6209 97.0733 41.8171 97.0733 40.9127C97.0733 39.9972 97.252 39.1933 97.6093 38.5011C97.9777 37.7977 98.469 37.2506 99.083 36.8598C99.6971 36.4579 100.378 36.2569 101.126 36.2569C101.606 36.2569 102.047 36.3295 102.449 36.4746C102.851 36.6198 103.197 36.804 103.488 37.0273C103.789 37.2506 104.018 37.4795 104.174 37.7139C104.342 37.9372 104.425 38.127 104.425 38.2833L103.823 38.5011V37.2785C103.823 36.9882 103.917 36.7481 104.107 36.5583C104.297 36.3574 104.537 36.2569 104.827 36.2569ZM101.444 43.7095C101.936 43.7095 102.366 43.5867 102.734 43.3411C103.102 43.0955 103.387 42.7605 103.588 42.3362C103.8 41.912 103.906 41.4374 103.906 40.9127C103.906 40.3768 103.8 39.8967 103.588 39.4724C103.387 39.0481 103.102 38.7132 102.734 38.4676C102.366 38.2219 101.936 38.0991 101.444 38.0991C100.964 38.0991 100.54 38.2219 100.172 38.4676C99.8032 38.7132 99.5129 39.0481 99.3008 39.4724C99.0998 39.8967 98.9993 40.3768 98.9993 40.9127C98.9993 41.4374 99.0998 41.912 99.3008 42.3362C99.5129 42.7605 99.8032 43.0955 100.172 43.3411C100.54 43.5867 100.964 43.7095 101.444 43.7095ZM112.798 36.2569C113.624 36.2569 114.25 36.4299 114.674 36.7761C115.109 37.1222 115.405 37.5855 115.561 38.1661C115.729 38.7355 115.813 39.3719 115.813 40.0753V44.3627C115.813 44.653 115.718 44.8986 115.528 45.0996C115.338 45.2894 115.098 45.3843 114.808 45.3843C114.517 45.3843 114.277 45.2894 114.088 45.0996C113.898 44.8986 113.803 44.653 113.803 44.3627V40.0753C113.803 39.7069 113.753 39.3775 113.652 39.0872C113.563 38.7858 113.395 38.5457 113.15 38.3671C112.904 38.1884 112.552 38.0991 112.095 38.0991C111.648 38.0991 111.268 38.1884 110.956 38.3671C110.654 38.5457 110.42 38.7858 110.252 39.0872C110.096 39.3775 110.018 39.7069 110.018 40.0753V44.3627C110.018 44.653 109.923 44.8986 109.733 45.0996C109.543 45.2894 109.303 45.3843 109.013 45.3843C108.723 45.3843 108.483 45.2894 108.293 45.0996C108.103 44.8986 108.008 44.653 108.008 44.3627V37.446C108.008 37.1557 108.103 36.9156 108.293 36.7258C108.483 36.5248 108.723 36.4244 109.013 36.4244C109.303 36.4244 109.543 36.5248 109.733 36.7258C109.923 36.9156 110.018 37.1557 110.018 37.446V38.1661L109.767 38.1159C109.867 37.9261 110.012 37.7251 110.202 37.513C110.392 37.2897 110.615 37.0831 110.872 36.8933C111.129 36.7035 111.419 36.5528 111.743 36.4411C112.067 36.3183 112.418 36.2569 112.798 36.2569Z" fill="white"/>
<path d="M47.4449 54.7074C47.645 54.7074 47.8194 54.6831 47.9682 54.6344C48.1169 54.583 48.2399 54.5114 48.3373 54.4194C48.4374 54.3248 48.5117 54.2112 48.5604 54.0787C48.6091 53.9435 48.6334 53.7934 48.6334 53.6284C48.6334 53.4716 48.6091 53.3296 48.5604 53.2025C48.5117 53.0754 48.4387 52.9672 48.3414 52.878C48.244 52.7887 48.121 52.7211 47.9722 52.6751C47.8235 52.6265 47.6477 52.6021 47.4449 52.6021H46.6295V54.7074H47.4449ZM47.4449 51.7584C47.837 51.7584 48.1764 51.8044 48.4631 51.8963C48.7497 51.9882 48.9863 52.1167 49.1729 52.2817C49.3595 52.4466 49.4975 52.644 49.5867 52.8739C49.6786 53.1038 49.7246 53.3553 49.7246 53.6284C49.7246 53.9124 49.6773 54.1733 49.5826 54.4113C49.488 54.6466 49.346 54.8494 49.1567 55.0198C48.9674 55.1901 48.7294 55.3227 48.4428 55.4173C48.1588 55.512 47.8262 55.5593 47.4449 55.5593H46.6295V57.624H45.5383V51.7584H47.4449ZM52.3341 54.5492C52.5396 54.5492 52.7181 54.5235 52.8695 54.4722C53.0237 54.4208 53.1494 54.3505 53.2468 54.2612C53.3468 54.1693 53.4212 54.0611 53.4699 53.9367C53.5185 53.8123 53.5429 53.6757 53.5429 53.527C53.5429 53.2295 53.4442 53.001 53.2468 52.8415C53.0521 52.6819 52.7532 52.6021 52.3503 52.6021H51.6526V54.5492H52.3341ZM55.1411 57.624H54.1554C53.9688 57.624 53.8336 57.551 53.7498 57.405L52.5166 55.5268C52.4706 55.4565 52.4192 55.4065 52.3625 55.3767C52.3084 55.347 52.2272 55.3321 52.1191 55.3321H51.6526V57.624H50.5614V51.7584H52.3503C52.7478 51.7584 53.0886 51.8003 53.3725 51.8841C53.6592 51.9653 53.8931 52.0802 54.0743 52.2289C54.2582 52.3777 54.3934 52.5562 54.4799 52.7644C54.5665 52.9699 54.6097 53.1971 54.6097 53.4459C54.6097 53.6433 54.58 53.8299 54.5205 54.0057C54.4637 54.1814 54.3799 54.341 54.269 54.4843C54.1608 54.6277 54.0256 54.7534 53.8633 54.8616C53.7038 54.9697 53.5212 55.0549 53.3157 55.1171C53.386 55.1577 53.4509 55.2064 53.5104 55.2632C53.5699 55.3172 53.624 55.3822 53.6727 55.4579L55.1411 57.624ZM56.8698 52.6265V54.2531H58.9224V55.0928H56.8698V56.7519H59.4741V57.624H55.7746V51.7584H59.4741V52.6265H56.8698ZM66.8016 51.7584V57.624H65.8402V53.8353C65.8402 53.6838 65.8483 53.5202 65.8646 53.3445L64.0919 56.6748C64.0081 56.8344 63.8796 56.9141 63.7065 56.9141H63.5524C63.3793 56.9141 63.2509 56.8344 63.167 56.6748L61.3741 53.3323C61.3822 53.4215 61.3889 53.5094 61.3944 53.596C61.3998 53.6825 61.4025 53.7623 61.4025 53.8353V57.624H60.4411V51.7584H61.2645C61.3132 51.7584 61.3551 51.7597 61.3903 51.7624C61.4255 51.7651 61.4566 51.7719 61.4836 51.7827C61.5133 51.7935 61.539 51.8111 61.5607 51.8355C61.585 51.8598 61.608 51.8922 61.6296 51.9328L63.3861 55.1901C63.432 55.2767 63.474 55.3659 63.5118 55.4579C63.5524 55.5498 63.5916 55.6445 63.6295 55.7418C63.6673 55.6418 63.7065 55.5458 63.7471 55.4538C63.7877 55.3592 63.8309 55.2686 63.8769 55.182L65.609 51.9328C65.6306 51.8922 65.6536 51.8598 65.678 51.8355C65.7023 51.8111 65.728 51.7935 65.755 51.7827C65.7848 51.7719 65.8172 51.7651 65.8524 51.7624C65.8876 51.7597 65.9295 51.7584 65.9782 51.7584H66.8016ZM69.2056 57.624H68.1103V51.7584H69.2056V57.624ZM72.8797 56.7438C73.0906 56.7438 73.2786 56.7086 73.4436 56.6383C73.6112 56.568 73.7519 56.4693 73.8654 56.3422C73.979 56.2151 74.0656 56.0609 74.125 55.8797C74.1872 55.6986 74.2183 55.4957 74.2183 55.2713V51.7584H75.3095V55.2713C75.3095 55.6201 75.2527 55.9433 75.1392 56.2408C75.0283 56.5355 74.8674 56.7911 74.6564 57.0074C74.4482 57.2211 74.194 57.3887 73.8938 57.5104C73.5937 57.6294 73.2556 57.6889 72.8797 57.6889C72.5011 57.6889 72.1617 57.6294 71.8615 57.5104C71.5614 57.3887 71.3058 57.2211 71.0949 57.0074C70.8866 56.7911 70.7257 56.5355 70.6122 56.2408C70.5013 55.9433 70.4458 55.6201 70.4458 55.2713V51.7584H71.537V55.2672C71.537 55.4917 71.5668 55.6945 71.6263 55.8757C71.6885 56.0569 71.7764 56.2124 71.8899 56.3422C72.0062 56.4693 72.1468 56.568 72.3118 56.6383C72.4795 56.7086 72.6688 56.7438 72.8797 56.7438ZM82.9007 51.7584V57.624H81.9393V53.8353C81.9393 53.6838 81.9474 53.5202 81.9637 53.3445L80.191 56.6748C80.1071 56.8344 79.9787 56.9141 79.8056 56.9141H79.6515C79.4784 56.9141 79.3499 56.8344 79.2661 56.6748L77.4731 53.3323C77.4813 53.4215 77.488 53.5094 77.4934 53.596C77.4988 53.6825 77.5015 53.7623 77.5015 53.8353V57.624H76.5402V51.7584H77.3636C77.4123 51.7584 77.4542 51.7597 77.4894 51.7624C77.5245 51.7651 77.5556 51.7719 77.5827 51.7827C77.6124 51.7935 77.6381 51.8111 77.6597 51.8355C77.6841 51.8598 77.7071 51.8922 77.7287 51.9328L79.4852 55.1901C79.5311 55.2767 79.573 55.3659 79.6109 55.4579C79.6515 55.5498 79.6907 55.6445 79.7285 55.7418C79.7664 55.6418 79.8056 55.5458 79.8462 55.4538C79.8867 55.3592 79.93 55.2686 79.976 55.182L81.7081 51.9328C81.7297 51.8922 81.7527 51.8598 81.7771 51.8355C81.8014 51.8111 81.8271 51.7935 81.8541 51.7827C81.8839 51.7719 81.9163 51.7651 81.9515 51.7624C81.9866 51.7597 82.0286 51.7584 82.0772 51.7584H82.9007ZM89.0119 55.4092L88.298 53.458C88.2628 53.3715 88.2263 53.2687 88.1885 53.1497C88.1506 53.0308 88.1128 52.9023 88.0749 52.7644C88.0397 52.9023 88.0032 53.0321 87.9654 53.1538C87.9275 53.2728 87.891 53.3769 87.8559 53.4662L87.146 55.4092H89.0119ZM90.9388 57.624H90.095C90.0004 57.624 89.9233 57.601 89.8638 57.5551C89.8043 57.5064 89.7597 57.4469 89.7299 57.3766L89.2918 56.1799H86.862L86.4239 57.3766C86.4023 57.4388 86.3604 57.4956 86.2982 57.547C86.236 57.5983 86.1589 57.624 86.067 57.624H85.2151L87.5232 51.7584H88.6347L90.9388 57.624ZM95.3997 56.2408C95.4592 56.2408 95.5119 56.2638 95.5579 56.3097L95.9878 56.7762C95.7499 57.071 95.4565 57.2968 95.1076 57.4537C94.7614 57.6105 94.345 57.6889 93.8582 57.6889C93.4228 57.6889 93.0307 57.6146 92.6818 57.4658C92.3357 57.3171 92.0396 57.1102 91.7935 56.8452C91.5474 56.5802 91.3581 56.2638 91.2256 55.896C91.0958 55.5282 91.0309 55.1266 91.0309 54.6912C91.0309 54.2504 91.1012 53.8475 91.2418 53.4824C91.3824 53.1146 91.5798 52.7982 91.834 52.5332C92.0909 52.2681 92.3965 52.0626 92.7508 51.9166C93.1051 51.7678 93.4972 51.6935 93.9272 51.6935C94.3544 51.6935 94.7331 51.7638 95.063 51.9044C95.3956 52.045 95.6782 52.2289 95.9108 52.4561L95.5457 52.9631C95.5241 52.9956 95.4957 53.024 95.4605 53.0483C95.4281 53.0727 95.3821 53.0848 95.3226 53.0848C95.282 53.0848 95.2401 53.074 95.1968 53.0524C95.1536 53.0281 95.1062 52.9997 95.0549 52.9672C95.0035 52.9321 94.944 52.8942 94.8764 52.8536C94.8088 52.8131 94.7303 52.7766 94.6411 52.7441C94.5519 52.7089 94.4477 52.6805 94.3288 52.6589C94.2125 52.6346 94.0773 52.6224 93.9231 52.6224C93.6608 52.6224 93.4201 52.6697 93.2011 52.7644C92.9847 52.8563 92.7981 52.9915 92.6413 53.17C92.4844 53.3458 92.3627 53.5622 92.2762 53.8191C92.1896 54.0733 92.1464 54.364 92.1464 54.6912C92.1464 55.0211 92.1924 55.3145 92.2843 55.5715C92.379 55.8284 92.5061 56.0447 92.6656 56.2205C92.8252 56.3963 93.0131 56.5315 93.2295 56.6261C93.4458 56.7181 93.6784 56.7641 93.9272 56.7641C94.0759 56.7641 94.2098 56.7559 94.3288 56.7397C94.4505 56.7235 94.5613 56.6978 94.6614 56.6626C94.7641 56.6275 94.8602 56.5829 94.9494 56.5288C95.0413 56.472 95.1319 56.403 95.2212 56.3219C95.2482 56.2976 95.2766 56.2786 95.3064 56.2651C95.3361 56.2489 95.3672 56.2408 95.3997 56.2408ZM100.637 56.2408C100.696 56.2408 100.749 56.2638 100.795 56.3097L101.225 56.7762C100.987 57.071 100.693 57.2968 100.345 57.4537C99.9984 57.6105 99.5819 57.6889 99.0952 57.6889C98.6598 57.6889 98.2676 57.6146 97.9188 57.4658C97.5726 57.3171 97.2765 57.1102 97.0304 56.8452C96.7843 56.5802 96.595 56.2638 96.4625 55.896C96.3327 55.5282 96.2678 55.1266 96.2678 54.6912C96.2678 54.2504 96.3381 53.8475 96.4787 53.4824C96.6194 53.1146 96.8168 52.7982 97.071 52.5332C97.3279 52.2681 97.6335 52.0626 97.9877 51.9166C98.342 51.7678 98.7341 51.6935 99.1641 51.6935C99.5914 51.6935 99.97 51.7638 100.3 51.9044C100.633 52.045 100.915 52.2289 101.148 52.4561L100.783 52.9631C100.761 52.9956 100.733 53.024 100.697 53.0483C100.665 53.0727 100.619 53.0848 100.56 53.0848C100.519 53.0848 100.477 53.074 100.434 53.0524C100.391 53.0281 100.343 52.9997 100.292 52.9672C100.24 52.9321 100.181 52.8942 100.113 52.8536C100.046 52.8131 99.9673 52.7766 99.8781 52.7441C99.7888 52.7089 99.6847 52.6805 99.5657 52.6589C99.4494 52.6346 99.3142 52.6224 99.1601 52.6224C98.8977 52.6224 98.6571 52.6697 98.438 52.7644C98.2217 52.8563 98.0351 52.9915 97.8782 53.17C97.7214 53.3458 97.5997 53.5622 97.5131 53.8191C97.4266 54.0733 97.3833 54.364 97.3833 54.6912C97.3833 55.0211 97.4293 55.3145 97.5213 55.5715C97.6159 55.8284 97.743 56.0447 97.9026 56.2205C98.0621 56.3963 98.2501 56.5315 98.4664 56.6261C98.6828 56.7181 98.9153 56.7641 99.1641 56.7641C99.3129 56.7641 99.4467 56.7559 99.5657 56.7397C99.6874 56.7235 99.7983 56.6978 99.8983 56.6626C100.001 56.6275 100.097 56.5829 100.186 56.5288C100.278 56.472 100.369 56.403 100.458 56.3219C100.485 56.2976 100.514 56.2786 100.543 56.2651C100.573 56.2489 100.604 56.2408 100.637 56.2408ZM107.439 54.6912C107.439 55.1212 107.368 55.5201 107.224 55.8879C107.084 56.2529 106.884 56.5693 106.624 56.8371C106.364 57.1048 106.052 57.3144 105.687 57.4658C105.322 57.6146 104.916 57.6889 104.47 57.6889C104.027 57.6889 103.622 57.6146 103.257 57.4658C102.892 57.3144 102.578 57.1048 102.316 56.8371C102.056 56.5693 101.855 56.2529 101.712 55.8879C101.568 55.5201 101.497 55.1212 101.497 54.6912C101.497 54.2612 101.568 53.8637 101.712 53.4986C101.855 53.1308 102.056 52.8131 102.316 52.5453C102.578 52.2776 102.892 52.0694 103.257 51.9206C103.622 51.7692 104.027 51.6935 104.47 51.6935C104.768 51.6935 105.047 51.7286 105.31 51.7989C105.572 51.8666 105.813 51.9639 106.032 52.091C106.251 52.2154 106.447 52.3682 106.62 52.5494C106.796 52.7279 106.944 52.928 107.066 53.1497C107.188 53.3715 107.28 53.6122 107.342 53.8718C107.407 54.1314 107.439 54.4045 107.439 54.6912ZM106.324 54.6912C106.324 54.3694 106.281 54.0814 106.194 53.8272C106.107 53.5703 105.984 53.3526 105.825 53.1741C105.665 52.9956 105.471 52.859 105.241 52.7644C105.014 52.6697 104.757 52.6224 104.47 52.6224C104.183 52.6224 103.925 52.6697 103.695 52.7644C103.468 52.859 103.273 52.9956 103.111 53.1741C102.952 53.3526 102.829 53.5703 102.742 53.8272C102.655 54.0814 102.612 54.3694 102.612 54.6912C102.612 55.013 102.655 55.3024 102.742 55.5593C102.829 55.8135 102.952 56.0298 103.111 56.2083C103.273 56.3841 103.468 56.5193 103.695 56.614C103.925 56.7086 104.183 56.7559 104.47 56.7559C104.757 56.7559 105.014 56.7086 105.241 56.614C105.471 56.5193 105.665 56.3841 105.825 56.2083C105.984 56.0298 106.107 55.8135 106.194 55.5593C106.281 55.3024 106.324 55.013 106.324 54.6912ZM110.758 56.7438C110.969 56.7438 111.157 56.7086 111.322 56.6383C111.49 56.568 111.631 56.4693 111.744 56.3422C111.858 56.2151 111.944 56.0609 112.004 55.8797C112.066 55.6986 112.097 55.4957 112.097 55.2713V51.7584H113.188V55.2713C113.188 55.6201 113.132 55.9433 113.018 56.2408C112.907 56.5355 112.746 56.7911 112.535 57.0074C112.327 57.2211 112.073 57.3887 111.773 57.5104C111.472 57.6294 111.134 57.6889 110.758 57.6889C110.38 57.6889 110.041 57.6294 109.74 57.5104C109.44 57.3887 109.185 57.2211 108.974 57.0074C108.765 56.7911 108.605 56.5355 108.491 56.2408C108.38 55.9433 108.325 55.6201 108.325 55.2713V51.7584H109.416V55.2672C109.416 55.4917 109.446 55.6945 109.505 55.8757C109.567 56.0569 109.655 56.2124 109.769 56.3422C109.885 56.4693 110.026 56.568 110.191 56.6383C110.358 56.7086 110.548 56.7438 110.758 56.7438ZM119.364 51.7584V57.624H118.804C118.717 57.624 118.644 57.6105 118.585 57.5835C118.528 57.5537 118.473 57.505 118.419 57.4374L115.356 53.527C115.372 53.7055 115.38 53.8704 115.38 54.0219V57.624H114.419V51.7584H114.991C115.037 51.7584 115.076 51.7611 115.109 51.7665C115.144 51.7692 115.173 51.7773 115.198 51.7908C115.225 51.8016 115.251 51.8192 115.275 51.8436C115.299 51.8652 115.326 51.8949 115.356 51.9328L118.431 55.8595C118.423 55.7648 118.416 55.6715 118.411 55.5796C118.405 55.4876 118.402 55.4024 118.402 55.324V51.7584H119.364ZM124.767 52.6549H122.998V57.624H121.907V52.6549H120.139V51.7584H124.767V52.6549Z" fill="white" fill-opacity="0.39"/>
</g>
<path d="M244.35 189V183.912H242.382V183.4H246.91V183.912H244.942V189H244.35ZM249.093 184.76C250.181 184.76 250.797 185.304 250.797 186.392V189H250.253V188.344C249.997 188.776 249.501 189.04 248.805 189.04C247.853 189.04 247.269 188.544 247.269 187.816C247.269 187.168 247.685 186.624 248.893 186.624H250.229V186.368C250.229 185.648 249.821 185.256 249.037 185.256C248.493 185.256 247.981 185.448 247.637 185.752L247.381 185.328C247.805 184.968 248.429 184.76 249.093 184.76ZM248.893 188.592C249.533 188.592 250.005 188.288 250.229 187.736V187.048H248.909C248.093 187.048 247.829 187.368 247.829 187.8C247.829 188.288 248.221 188.592 248.893 188.592ZM254.628 184.76C255.828 184.76 256.724 185.624 256.724 186.896C256.724 188.176 255.828 189.04 254.628 189.04C253.956 189.04 253.38 188.752 253.028 188.208V190.552H252.46V184.792H253.004V185.624C253.348 185.064 253.932 184.76 254.628 184.76ZM254.588 188.536C255.476 188.536 256.156 187.88 256.156 186.896C256.156 185.92 255.476 185.256 254.588 185.256C253.692 185.256 253.02 185.92 253.02 186.896C253.02 187.88 253.692 188.536 254.588 188.536ZM262.231 188.336L262.431 188.744C262.207 188.944 261.871 189.04 261.543 189.04C260.751 189.04 260.311 188.592 260.311 187.816V185.272H259.559V184.792H260.311V183.872H260.879V184.792H262.159V185.272H260.879V187.784C260.879 188.28 261.135 188.552 261.607 188.552C261.839 188.552 262.071 188.48 262.231 188.336ZM265.157 189.04C263.925 189.04 263.013 188.144 263.013 186.896C263.013 185.648 263.925 184.76 265.157 184.76C266.389 184.76 267.293 185.648 267.293 186.896C267.293 188.144 266.389 189.04 265.157 189.04ZM265.157 188.536C266.053 188.536 266.717 187.88 266.717 186.896C266.717 185.912 266.053 185.256 265.157 185.256C264.261 185.256 263.589 185.912 263.589 186.896C263.589 187.88 264.261 188.536 265.157 188.536ZM272.93 184.76C273.954 184.76 274.658 185.352 274.658 186.56V189H274.09V186.616C274.09 185.728 273.626 185.272 272.826 185.272C271.922 185.272 271.354 185.832 271.354 186.792V189H270.786V183.064H271.354V185.528C271.666 185.04 272.218 184.76 272.93 184.76ZM276.608 183.872C276.376 183.872 276.192 183.688 276.192 183.464C276.192 183.248 276.376 183.064 276.608 183.064C276.84 183.064 277.024 183.24 277.024 183.456C277.024 183.688 276.848 183.872 276.608 183.872ZM276.32 189V184.792H276.888V189H276.32ZM281.861 183.064H282.429V189H281.885V188.168C281.541 188.736 280.957 189.04 280.261 189.04C279.061 189.04 278.165 188.168 278.165 186.896C278.165 185.624 279.061 184.76 280.261 184.76C280.933 184.76 281.509 185.048 281.861 185.592V183.064ZM280.309 188.536C281.197 188.536 281.869 187.88 281.869 186.896C281.869 185.912 281.197 185.256 280.309 185.256C279.413 185.256 278.741 185.912 278.741 186.896C278.741 187.88 279.413 188.536 280.309 188.536ZM287.803 186.896C287.803 186.944 287.795 187.008 287.795 187.072H284.275C284.339 187.952 285.011 188.536 285.931 188.536C286.443 188.536 286.899 188.352 287.219 187.984L287.539 188.352C287.163 188.8 286.579 189.04 285.915 189.04C284.603 189.04 283.707 188.144 283.707 186.896C283.707 185.648 284.579 184.76 285.763 184.76C286.947 184.76 287.803 185.632 287.803 186.896ZM285.763 185.248C284.947 185.248 284.347 185.824 284.275 186.648H287.259C287.187 185.824 286.587 185.248 285.763 185.248ZM294.565 183.064H295.133V189H294.589V188.168C294.245 188.736 293.661 189.04 292.965 189.04C291.765 189.04 290.869 188.168 290.869 186.896C290.869 185.624 291.765 184.76 292.965 184.76C293.637 184.76 294.213 185.048 294.565 185.592V183.064ZM293.013 188.536C293.901 188.536 294.573 187.88 294.573 186.896C294.573 185.912 293.901 185.256 293.013 185.256C292.117 185.256 291.445 185.912 291.445 186.896C291.445 187.88 292.117 188.536 293.013 188.536ZM300.506 186.896C300.506 186.944 300.498 187.008 300.498 187.072H296.978C297.042 187.952 297.714 188.536 298.634 188.536C299.146 188.536 299.602 188.352 299.922 187.984L300.242 188.352C299.866 188.8 299.282 189.04 298.618 189.04C297.306 189.04 296.41 188.144 296.41 186.896C296.41 185.648 297.282 184.76 298.466 184.76C299.65 184.76 300.506 185.632 300.506 186.896ZM298.466 185.248C297.65 185.248 297.05 185.824 296.978 186.648H299.962C299.89 185.824 299.29 185.248 298.466 185.248ZM303.799 188.336L303.999 188.744C303.775 188.944 303.439 189.04 303.111 189.04C302.319 189.04 301.879 188.592 301.879 187.816V185.272H301.127V184.792H301.879V183.872H302.447V184.792H303.727V185.272H302.447V187.784C302.447 188.28 302.703 188.552 303.175 188.552C303.407 188.552 303.639 188.48 303.799 188.336ZM306.625 184.76C307.713 184.76 308.329 185.304 308.329 186.392V189H307.785V188.344C307.529 188.776 307.033 189.04 306.337 189.04C305.385 189.04 304.801 188.544 304.801 187.816C304.801 187.168 305.217 186.624 306.425 186.624H307.761V186.368C307.761 185.648 307.353 185.256 306.569 185.256C306.025 185.256 305.513 185.448 305.169 185.752L304.913 185.328C305.337 184.968 305.961 184.76 306.625 184.76ZM306.425 188.592C307.065 188.592 307.537 188.288 307.761 187.736V187.048H306.441C305.625 187.048 305.361 187.368 305.361 187.8C305.361 188.288 305.753 188.592 306.425 188.592ZM310.279 183.872C310.047 183.872 309.863 183.688 309.863 183.464C309.863 183.248 310.047 183.064 310.279 183.064C310.511 183.064 310.695 183.24 310.695 183.456C310.695 183.688 310.519 183.872 310.279 183.872ZM309.991 189V184.792H310.559V189H309.991ZM312.26 189V183.064H312.828V189H312.26ZM315.656 189.04C314.96 189.04 314.288 188.816 313.944 188.52L314.2 188.072C314.536 188.336 315.104 188.544 315.696 188.544C316.496 188.544 316.824 188.272 316.824 187.856C316.824 186.76 314.096 187.624 314.096 185.96C314.096 185.272 314.688 184.76 315.76 184.76C316.304 184.76 316.896 184.912 317.248 185.152L317 185.608C316.632 185.352 316.192 185.248 315.76 185.248C315 185.248 314.664 185.544 314.664 185.944C314.664 187.08 317.392 186.224 317.392 187.84C317.392 188.568 316.752 189.04 315.656 189.04Z" fill="white"/>
<rect x="236.25" y="179.25" width="87.5" height="13.5" rx="6.75" stroke="white" stroke-width="0.5"/>
</g>
<path d="M50.016 166.072C47.496 166.072 45.624 164.26 45.624 161.8C45.624 159.34 47.496 157.528 50.028 157.528C51.252 157.528 52.356 157.936 53.1 158.752L52.536 159.316C51.852 158.62 51.012 158.32 50.052 158.32C48.024 158.32 46.5 159.808 46.5 161.8C46.5 163.792 48.024 165.28 50.052 165.28C51.012 165.28 51.852 164.98 52.536 164.272L53.1 164.836C52.356 165.652 51.252 166.072 50.016 166.072ZM60.9833 157.6H61.8833L58.1633 166H57.2873L53.5673 157.6H54.5273L57.7433 164.896L60.9833 157.6ZM69.3622 157.6H70.2622L66.5422 166H65.6662L61.9462 157.6H62.9062L66.1222 164.896L69.3622 157.6Z" fill="white"/>
<path d="M49.634 183.084C48.878 183.084 48.206 182.888 47.618 182.496C47.03 182.095 46.568 181.525 46.232 180.788C45.896 180.041 45.728 179.145 45.728 178.1C45.728 177.055 45.896 176.163 46.232 175.426C46.568 174.679 47.03 174.11 47.618 173.718C48.206 173.317 48.878 173.116 49.634 173.116C50.39 173.116 51.062 173.317 51.65 173.718C52.238 174.11 52.7 174.679 53.036 175.426C53.3813 176.163 53.554 177.055 53.554 178.1C53.554 179.145 53.3813 180.041 53.036 180.788C52.7 181.525 52.238 182.095 51.65 182.496C51.062 182.888 50.39 183.084 49.634 183.084ZM49.634 182.16C50.2127 182.16 50.7167 182.006 51.146 181.698C51.5753 181.381 51.9113 180.923 52.154 180.326C52.3967 179.719 52.518 178.977 52.518 178.1C52.518 177.223 52.3967 176.485 52.154 175.888C51.9113 175.281 51.5753 174.824 51.146 174.516C50.7167 174.199 50.2127 174.04 49.634 174.04C49.074 174.04 48.5747 174.199 48.136 174.516C47.6973 174.824 47.3567 175.281 47.114 175.888C46.8713 176.485 46.75 177.223 46.75 178.1C46.75 178.977 46.8713 179.719 47.114 180.326C47.3567 180.923 47.6973 181.381 48.136 181.698C48.5747 182.006 49.074 182.16 49.634 182.16ZM54.8155 183V182.286L58.8895 178.296C59.2629 177.932 59.5429 177.615 59.7295 177.344C59.9162 177.064 60.0422 176.803 60.1075 176.56C60.1729 176.317 60.2055 176.089 60.2055 175.874C60.2055 175.305 60.0095 174.857 59.6175 174.53C59.2349 174.203 58.6655 174.04 57.9095 174.04C57.3309 174.04 56.8175 174.129 56.3695 174.306C55.9309 174.483 55.5529 174.759 55.2355 175.132L54.5215 174.516C54.9042 174.068 55.3942 173.723 55.9915 173.48C56.5889 173.237 57.2562 173.116 57.9935 173.116C58.6562 173.116 59.2302 173.223 59.7155 173.438C60.2009 173.643 60.5742 173.947 60.8355 174.348C61.1062 174.749 61.2415 175.221 61.2415 175.762C61.2415 176.079 61.1949 176.392 61.1015 176.7C61.0175 177.008 60.8589 177.335 60.6255 177.68C60.4015 178.016 60.0702 178.399 59.6315 178.828L55.8935 182.496L55.6135 182.104H61.6895V183H54.8155ZM64.6492 183L68.8772 173.648L69.1852 174.096H63.1232L63.6412 173.606V175.93H62.6472V173.2H69.8432V173.914L65.7412 183H64.6492Z" fill="white"/>
<g filter="url(#filter2_d_76_2778)">
<rect x="294" y="35" width="29.9477" height="20.9634" rx="4.38636" fill="#D7D7D7"/>
<rect x="294.219" y="35.2193" width="29.509" height="20.5247" rx="4.16705" stroke="black" stroke-opacity="0.6" stroke-width="0.438636"/>
<line x1="313.965" y1="42.2675" x2="323.948" y2="42.2675" stroke="black" stroke-opacity="0.6" stroke-width="0.438636"/>
<line x1="313.965" y1="48.7563" x2="323.948" y2="48.7563" stroke="black" stroke-opacity="0.6" stroke-width="0.438636"/>
<line x1="294" y1="42.2675" x2="303.483" y2="42.2675" stroke="black" stroke-opacity="0.6" stroke-width="0.438636"/>
<line x1="294" y1="48.7563" x2="303.483" y2="48.7563" stroke="black" stroke-opacity="0.6" stroke-width="0.438636"/>
<path d="M308.974 55.9634C308.974 55.9634 306.11 54.0586 304.981 52.4695C303.963 51.037 303.483 48.726 303.483 48.726C303.483 48.726 304.247 46.8072 304.232 45.4817C304.218 44.2027 303.483 42.3621 303.483 42.3621C303.483 42.3621 304.042 39.9699 304.981 38.4939C306.113 36.7151 308.974 35 308.974 35" stroke="black" stroke-opacity="0.6" stroke-width="0.438636"/>
<path d="M308.974 55.9634C308.974 55.9634 311.532 54.1197 312.557 52.4695C313.385 51.1379 313.965 48.726 313.965 48.726C313.965 48.726 313.056 46.7937 313.069 45.4817C313.082 44.2166 313.965 42.3621 313.965 42.3621C313.965 42.3621 313.406 39.8668 312.557 38.4939C311.536 36.8411 308.974 35 308.974 35" stroke="black" stroke-opacity="0.6" stroke-width="0.438636"/>
</g>
<defs>
<filter id="filter0_ddd_76_2778" x="0" y="0" width="368.425" height="254.172" filterUnits="userSpaceOnUse" color-interpolation-filters="sRGB">
<feFlood flood-opacity="0" result="BackgroundImageFix"/>
<feColorMatrix in="SourceAlpha" type="matrix" values="0 0 0 0 0 0 0 0 0 0 0 0 0 0 0 0 0 0 127 0" result="hardAlpha"/>
<feOffset/>
<feGaussianBlur stdDeviation="0.5"/>
<feColorMatrix type="matrix" values="0 0 0 0 0 0 0 0 0 0 0 0 0 0 0 0 0 0 0.04 0"/>
<feBlend mode="normal" in2="BackgroundImageFix" result="effect1_dropShadow_76_2778"/>
<feColorMatrix in="SourceAlpha" type="matrix" values="0 0 0 0 0 0 0 0 0 0 0 0 0 0 0 0 0 0 127 0" result="hardAlpha"/>
<feOffset dy="2"/>
<feGaussianBlur stdDeviation="3"/>
<feColorMatrix type="matrix" values="0 0 0 0 0 0 0 0 0 0 0 0 0 0 0 0 0 0 0.04 0"/>
<feBlend mode="normal" in2="effect1_dropShadow_76_2778" result="effect2_dropShadow_76_2778"/>
<feColorMatrix in="SourceAlpha" type="matrix" values="0 0 0 0 0 0 0 0 0 0 0 0 0 0 0 0 0 0 127 0" result="hardAlpha"/>
<feOffset dy="16"/>
<feGaussianBlur stdDeviation="12"/>
<feColorMatrix type="matrix" values="0 0 0 0 0 0 0 0 0 0 0 0 0 0 0 0 0 0 0.06 0"/>
<feBlend mode="normal" in2="effect2_dropShadow_76_2778" result="effect3_dropShadow_76_2778"/>
<feBlend mode="normal" in="SourceGraphic" in2="effect3_dropShadow_76_2778" result="shape"/>
</filter>
<filter id="filter1_ddd_76_2778" x="0" y="0" width="368.425" height="254.172" filterUnits="userSpaceOnUse" color-interpolation-filters="sRGB">
<feFlood flood-opacity="0" result="BackgroundImageFix"/>
<feColorMatrix in="SourceAlpha" type="matrix" values="0 0 0 0 0 0 0 0 0 0 0 0 0 0 0 0 0 0 127 0" result="hardAlpha"/>
<feOffset/>
<feGaussianBlur stdDeviation="0.5"/>
<feColorMatrix type="matrix" values="0 0 0 0 0 0 0 0 0 0 0 0 0 0 0 0 0 0 0.04 0"/>
<feBlend mode="normal" in2="BackgroundImageFix" result="effect1_dropShadow_76_2778"/>
<feColorMatrix in="SourceAlpha" type="matrix" values="0 0 0 0 0 0 0 0 0 0 0 0 0 0 0 0 0 0 127 0" result="hardAlpha"/>
<feOffset dy="2"/>
<feGaussianBlur stdDeviation="3"/>
<feColorMatrix type="matrix" values="0 0 0 0 0 0 0 0 0 0 0 0 0 0 0 0 0 0 0.04 0"/>
<feBlend mode="normal" in2="effect1_dropShadow_76_2778" result="effect2_dropShadow_76_2778"/>
<feColorMatrix in="SourceAlpha" type="matrix" values="0 0 0 0 0 0 0 0 0 0 0 0 0 0 0 0 0 0 127 0" result="hardAlpha"/>
<feOffset dy="16"/>
<feGaussianBlur stdDeviation="12"/>
<feColorMatrix type="matrix" values="0 0 0 0 0 0 0 0 0 0 0 0 0 0 0 0 0 0 0.06 0"/>
<feBlend mode="normal" in2="effect2_dropShadow_76_2778" result="effect3_dropShadow_76_2778"/>
<feBlend mode="normal" in="SourceGraphic" in2="effect3_dropShadow_76_2778" result="shape"/>
</filter>
<filter id="filter2_d_76_2778" x="290.491" y="33.0575" width="36.9659" height="28.3522" filterUnits="userSpaceOnUse" color-interpolation-filters="sRGB">
<feFlood flood-opacity="0" result="BackgroundImageFix"/>
<feColorMatrix in="SourceAlpha" type="matrix" values="0 0 0 0 0 0 0 0 0 0 0 0 0 0 0 0 0 0 127 0" result="hardAlpha"/>
<feOffset dy="1.75455"/>
<feGaussianBlur stdDeviation="1.75455"/>
<feComposite in2="hardAlpha" operator="out"/>
<feColorMatrix type="matrix" values="0 0 0 0 0 0 0 0 0 0 0 0 0 0 0 0 0 0 0.25 0"/>
<feBlend mode="normal" in2="BackgroundImageFix" result="effect1_dropShadow_76_2778"/>
<feBlend mode="normal" in="SourceGraphic" in2="effect1_dropShadow_76_2778" result="shape"/>
</filter>
<linearGradient id="paint0_linear_76_2778" x1="184.213" y1="8" x2="184.213" y2="214.172" gradientUnits="userSpaceOnUse">
<stop stop-color="#197BBD"/>
<stop offset="1" stop-color="#3391D0"/>
</linearGradient>
<linearGradient id="paint1_linear_76_2778" x1="184.213" y1="8" x2="184.213" y2="214.172" gradientUnits="userSpaceOnUse">
<stop stop-color="#197BBD"/>
<stop offset="1" stop-color="#3391D0"/>
</linearGradient>
</defs>
</svg>
