<svg width="32" height="33" viewBox="0 0 32 33" fill="none" xmlns="http://www.w3.org/2000/svg">
<path d="M4.96558 7.23443L0 2.19814L2.1666 0L7.13065 5.03785H30.4687C30.7074 5.03783 30.9427 5.09442 31.156 5.20308C31.3693 5.31175 31.5546 5.4695 31.6971 5.66373C31.8396 5.85796 31.9354 6.0833 31.9768 6.32176C32.0182 6.56022 32.0041 6.8052 31.9356 7.03714L28.2608 19.4648C28.1662 19.7849 27.9725 20.0656 27.7082 20.2651C27.444 20.4646 27.1233 20.5724 26.7939 20.5724H8.02792V23.6793H24.8708V26.7862H6.49675C6.09066 26.7862 5.7012 26.6225 5.41405 26.3312C5.1269 26.0399 4.96558 25.6447 4.96558 25.2327V7.23443ZM8.02792 8.14475V17.4655H25.6547L28.4108 8.14475H8.02792ZM7.26233 33C6.6532 33 6.06901 32.7545 5.63828 32.3175C5.20756 31.8805 4.96558 31.2878 4.96558 30.6698C4.96558 30.0518 5.20756 29.4591 5.63828 29.0221C6.06901 28.5851 6.6532 28.3396 7.26233 28.3396C7.87147 28.3396 8.45566 28.5851 8.88638 29.0221C9.31711 29.4591 9.55909 30.0518 9.55909 30.6698C9.55909 31.2878 9.31711 31.8805 8.88638 32.3175C8.45566 32.7545 7.87147 33 7.26233 33ZM25.6364 33C25.0272 33 24.443 32.7545 24.0123 32.3175C23.5816 31.8805 23.3396 31.2878 23.3396 30.6698C23.3396 30.0518 23.5816 29.4591 24.0123 29.0221C24.443 28.5851 25.0272 28.3396 25.6364 28.3396C26.2455 28.3396 26.8297 28.5851 27.2604 29.0221C27.6911 29.4591 27.9331 30.0518 27.9331 30.6698C27.9331 31.2878 27.6911 31.8805 27.2604 32.3175C26.8297 32.7545 26.2455 33 25.6364 33Z" fill="#052224"/>
</svg>
